<svg width="92" height="92" viewBox="0 0 92 92" fill="none" xmlns="http://www.w3.org/2000/svg">
<path d="M46 0C58.2 0 69.9002 4.84642 78.5269 13.4731C87.1536 22.0998 92 33.8 92 46C92 58.2 87.1536 69.9002 78.5269 78.5269C69.9002 87.1536 58.2 92 46 92C33.8 92 22.0998 87.1536 13.4731 78.5269C4.84642 69.9002 0 58.2 0 46C0 33.8 4.84642 22.0998 13.4731 13.4731C22.0998 4.84642 33.8 0 46 0ZM21.5625 34.5C20.4188 34.5 19.3219 34.9544 18.5131 35.7631C17.7044 36.5719 17.25 37.6688 17.25 38.8125C17.25 39.9562 17.7044 41.0531 18.5131 41.8619C19.3219 42.6706 20.4188 43.125 21.5625 43.125H35.4142C35.3553 43.4125 35.3073 43.7021 35.2705 43.9933L33.5053 58.4143L31.648 75.7275C31.526 76.8651 31.8609 78.0047 32.5791 78.8954C33.2973 79.7861 34.3399 80.355 35.4775 80.477C36.6151 80.599 37.7547 80.2641 38.6454 79.5459C39.5361 78.8277 40.105 77.7851 40.227 76.6475L41.6645 63.25H50.3413L51.7788 76.6475C51.8244 77.4257 52.0806 78.1768 52.5201 78.8206C52.9595 79.4644 53.5657 79.9767 54.2737 80.3027C54.9818 80.6286 55.7651 80.7561 56.54 80.6713C57.3149 80.5866 58.0521 80.2928 58.673 79.8215C59.2955 79.3537 59.7798 78.7261 60.0744 78.0053C60.369 77.2845 60.4629 76.4974 60.3462 75.7275L58.5063 58.4775L56.7295 43.9933C56.6927 43.7021 56.6447 43.4125 56.5857 43.125H70.4375C71.5812 43.125 72.6781 42.6706 73.4869 41.8619C74.2956 41.0531 74.75 39.9562 74.75 38.8125C74.75 37.6688 74.2956 36.5719 73.4869 35.7631C72.6781 34.9544 71.5812 34.5 70.4375 34.5H21.5625ZM46 34.5C47.5314 34.5346 49.0544 34.263 50.4794 33.7009C51.9044 33.1389 53.2028 32.2978 54.2982 31.2271C55.3937 30.1564 56.2643 28.8776 56.8587 27.4658C57.4532 26.054 57.7596 24.5377 57.76 23.0058C57.7604 21.474 57.4547 19.9575 56.861 18.5454C56.2672 17.1333 55.3973 15.8541 54.3024 14.7828C53.2074 13.7115 51.9095 12.8698 50.4847 12.3071C49.06 11.7443 47.5372 11.4719 46.0058 11.5057C43.001 11.5722 40.1417 12.8123 38.0399 14.9606C35.938 17.1089 34.7607 19.9946 34.76 23.0001C34.7592 26.0055 35.9351 28.8919 38.0359 31.0412C40.1366 33.1905 42.9953 34.4321 46 34.5Z" fill="white"/>
</svg>
