<svg width="101" height="92" viewBox="0 0 101 92" fill="none" xmlns="http://www.w3.org/2000/svg">
<path d="M81.5996 41.17L46.2917 73.3317V84.3334H25.25C20.5788 84.3334 16.8334 80.9217 16.8334 76.6667V15.3334C16.8334 13.3 17.7201 11.35 19.2986 9.9122C20.877 8.47442 23.0178 7.66669 25.25 7.66669H29.4584V34.5L39.9792 28.75L50.5 34.5V7.66669H75.75C77.9823 7.66669 80.1231 8.47442 81.7015 9.9122C83.28 11.35 84.1667 13.3 84.1667 15.3334V39.4834C83.2409 39.9434 82.3571 40.48 81.5996 41.17ZM54.7084 76.5134V84.3334H63.2934L89.0905 60.8734L80.5055 53.015L54.7084 76.5134ZM96.1605 51.635L90.6055 46.575C89.7638 45.8084 88.375 45.8084 87.5755 46.575L83.4513 50.3317L92.0363 58.1517L96.1605 54.395C97.0021 53.6667 97.0021 52.4017 96.1605 51.635Z" fill="white"/>
</svg>
