<svg width="92" height="92" viewBox="0 0 92 92" fill="none" xmlns="http://www.w3.org/2000/svg">
<path d="M15.3333 11.5C11.0783 11.5 7.66663 14.9117 7.66663 19.1667V57.5C7.66663 59.5333 8.47436 61.4834 9.91214 62.9212C11.3499 64.3589 13.3 65.1667 15.3333 65.1667H46V84.3333L57.5 72.8333L69 84.3333V65.1667H76.6666C78.7 65.1667 80.65 64.3589 82.0878 62.9212C83.5256 61.4834 84.3333 59.5333 84.3333 57.5V19.1667C84.3333 17.1333 83.5256 15.1833 82.0878 13.7455C80.65 12.3077 78.7 11.5 76.6666 11.5H15.3333ZM46 19.1667L57.5 26.8333L69 19.1667V32.5833L80.5 38.3333L69 44.0833V57.5L57.5 49.8333L46 57.5V44.0833L34.5 38.3333L46 32.5833V19.1667ZM15.3333 19.1667H34.5V26.8333H15.3333V19.1667ZM15.3333 34.5H26.8333V42.1667H15.3333V34.5ZM15.3333 49.8333H34.5V57.5H15.3333V49.8333Z" fill="white"/>
</svg>
