<svg width="92" height="92" viewBox="0 0 92 92" fill="none" xmlns="http://www.w3.org/2000/svg">
<path d="M76.6667 65.1667C78.7 65.1667 80.65 64.3589 82.0878 62.9212C83.5256 61.4834 84.3333 59.5333 84.3333 57.5V15.3334C84.3333 13.3 83.5256 11.35 82.0878 9.9122C80.65 8.47442 78.7 7.66669 76.6667 7.66669H36.2633C37.605 10.005 38.3333 12.65 38.3333 15.3334H76.6667V57.5H42.1667V65.1667M57.5 26.8334V34.5H34.5V84.3334H26.8333V61.3334H19.1667V84.3334H11.5V53.6667H5.75V34.5C5.75 32.4667 6.55774 30.5166 7.99551 29.0789C9.43329 27.6411 11.3833 26.8334 13.4167 26.8334H57.5ZM30.6667 15.3334C30.6667 17.3667 29.8589 19.3167 28.4212 20.7545C26.9834 22.1923 25.0333 23 23 23C20.9667 23 19.0166 22.1923 17.5788 20.7545C16.1411 19.3167 15.3333 17.3667 15.3333 15.3334C15.3333 13.3 16.1411 11.35 17.5788 9.9122C19.0166 8.47442 20.9667 7.66669 23 7.66669C25.0333 7.66669 26.9834 8.47442 28.4212 9.9122C29.8589 11.35 30.6667 13.3 30.6667 15.3334Z" fill="white"/>
</svg>
